<?xml version="1.0" encoding="utf-8"?>
<!-- Generator: Adobe Illustrator 19.2.1, SVG Export Plug-In . SVG Version: 6.00 Build 0)  -->
<!DOCTYPE svg PUBLIC "-//W3C//DTD SVG 1.1//EN" "http://www.w3.org/Graphics/SVG/1.1/DTD/svg11.dtd">
<svg version="1.1" id="Layer_1" xmlns="http://www.w3.org/2000/svg" xmlns:xlink="http://www.w3.org/1999/xlink" x="0px" y="0px"
	 viewBox="0 0 799.6 237.7" enable-background="new 0 0 799.6 237.7" xml:space="preserve">
<g id="Large_Logo_-_cutout">
	<g>
		<path fill="#FFFFFF" d="M132.7,63.4v87c0,4.2-1.3,8.1-3.4,11.6l-9.8,17.2c-0.5,0.9-1.4,1.4-2.5,1.4h-10.1c-1.1,0-2-0.5-2.5-1.4
			L96.9,166l-7.6,13.2c-0.5,0.9-1.4,1.4-2.5,1.4h-10c-1.1,0-2.2-0.5-2.5-1.4L64.5,162c-2.4-3.4-3.6-7.4-3.6-11.6v-87
			c0-1.6,1.3-2.9,2.9-2.9h5.8c1.6,0,2.9,1.3,2.9,2.9v87c0,1.1,0.2,2,0.5,2.9l8.7,15.6l8.9-15.6c0.4-0.9,0.5-1.8,0.5-2.9v-87
			c0-1.6,1.3-2.9,2.9-2.9h5.8c1.6,0,2.9,1.3,2.9,2.9v87c0,1.1,0.2,2,0.5,2.9l8.7,15.6l8.9-15.6c0.2-0.9,0.4-1.8,0.4-2.9v-87
			c0-1.6,1.4-2.9,2.9-2.9h5.8C131.5,60.5,132.7,61.8,132.7,63.4z M128,66c0-0.4-0.4-0.7-0.9-0.7h-0.4c-0.4,0-0.7,0.4-0.7,0.7v84.3
			c0,0,0,3.8-1.8,6.9l-9.6,16.8h-5.4l-9.6-16.8c-1.6-2.7-1.8-5.8-1.8-6.7v-0.2V66c0-0.4-0.4-0.7-0.7-0.7h-0.4
			c-0.5,0-0.9,0.4-0.9,0.7v84.3v0.2c0,0.9-0.2,4-1.8,6.7L84.4,174h-5.2l-9.8-16.8c-1.6-3.1-1.8-6.9-1.8-6.9V66
			c0-0.4-0.2-0.7-0.7-0.7h-0.4c-0.4,0-0.7,0.4-0.7,0.7v84.3c0,0.2,0,4.3,2,7.8l10,17.4c0.2,0.4,0.5,0.5,0.9,0.5H85
			c0.4,0,0.7-0.2,0.9-0.5l10-17.4c0.4-0.7,0.7-1.6,1.1-2.4c0.2,0.7,0.5,1.6,1.1,2.4l9.8,17.4c0.2,0.4,0.5,0.5,0.9,0.5h6.5
			c0.4,0,0.7-0.2,0.9-0.5l9.8-17.4c2.2-3.4,2.2-7.6,2.2-7.8V66z"/>
		<path fill="#FFFFFF" d="M191.4,81.3v78.5c0,11.6-9.4,20.8-20.8,20.8c-11.6,0-21-9.2-21-20.8V81.3c0-11.6,9.4-21,21-21
			C181.9,60.3,191.4,69.8,191.4,81.3z M186.5,81.3c0-8.9-7.1-16.1-15.9-16.1c-8.9,0-16.1,7.2-16.1,16.1v78.5
			c0,8.9,7.2,16.1,16.1,16.1c8.9,0,15.9-7.2,15.9-16.1V81.3z M184.7,81.3v78.5c0,7.8-6.3,14.1-14.1,14.1c-7.8,0-14.1-6.3-14.1-14.1
			V81.3c0-7.8,6.3-14.1,14.1-14.1C178.3,67.2,184.7,73.6,184.7,81.3z M179.8,81.3c0-5.2-4.2-9.4-9.2-9.4c-5.2,0-9.4,4.2-9.4,9.4
			v78.5c0,5.1,4.2,9.2,9.4,9.2c5.1,0,9.2-4.2,9.2-9.2V81.3z"/>
		<path fill="#FFFFFF" d="M287.4,81.3v96.4c0,1.6-1.4,2.9-2.9,2.9h-5.8c-1.6,0-2.9-1.3-2.9-2.9V81.3c0-5.2-4.2-9.4-9.4-9.4
			c-5.1,0-9.2,4.2-9.2,9.4v96.4c0,1.6-1.3,2.9-2.9,2.9h-5.8c-1.6,0-2.9-1.3-2.9-2.9V81.3c0-5.2-4.2-9.4-9.2-9.4
			c-5.2,0-9.4,4.2-9.4,9.4v96.4c0,1.6-1.3,2.9-2.9,2.9h-5.8c-1.4,0-2.9-1.3-2.9-2.9V81.3c0-11.6,9.4-21,21-21c5.8,0,11.2,2.5,15,6.5
			c3.8-4,9.2-6.5,15-6.5C278,60.3,287.4,69.8,287.4,81.3z M282.5,81.3c0-8.9-7.2-16.1-16.1-16.1c-6.9,0-12.8,4.3-15,10.7
			c-2.2-6.3-8.1-10.7-15-10.7c-8.9,0-16.1,7.2-16.1,16.1v93.7c0,0.5,0.4,0.9,0.7,0.9h0.4c0.5,0,0.9-0.4,0.9-0.9V81.3
			c0-7.8,6.3-14.1,14.1-14.1c7.8,0,14.1,6.3,14.1,14.1v93.7c0,0.5,0.4,0.9,0.7,0.9h0.4c0.4,0,0.7-0.4,0.7-0.9V81.3
			c0-7.8,6.3-14.1,14.1-14.1c7.8,0,14.1,6.3,14.1,14.1v93.9c0,0.4,0.4,0.7,0.9,0.7h0.4c0.4,0,0.7-0.4,0.7-0.7V81.3z"/>
		<path fill="#FFFFFF" d="M318.5,71.9v42.9h15.7c1.6,0,2.9,1.3,2.9,2.9v5.8c0,1.4-1.3,2.9-2.9,2.9h-15.7v42.7h15.7
			c1.6,0,2.9,1.4,2.9,2.9v5.8c0,1.6-1.3,2.9-2.9,2.9h-21.5c-3.3,0-5.8-2.5-5.8-5.8V66.1c0-3.1,2.5-5.8,5.8-5.8h21.5
			c1.6,0,2.9,1.4,2.9,2.9V69c0,1.6-1.3,2.9-2.9,2.9H318.5z M313.8,119.5V67.2h17.7c0.4,0,0.7-0.4,0.7-0.7V66c0-0.4-0.4-0.7-0.7-0.7
			h-18.8c-0.5,0-0.9,0.4-0.9,0.9v108.7c0,0.5,0.4,1.1,0.9,1.1h18.8c0.4,0,0.7-0.4,0.7-0.7v-0.5c0-0.4-0.4-0.7-0.7-0.7h-17.7v-52.5
			h17.7c0.4,0,0.7-0.4,0.7-0.7v-0.5c0-0.4-0.4-0.7-0.7-0.7H313.8z"/>
		<path fill="#FFFFFF" d="M398.5,81.3v96.4c0,1.6-1.3,2.9-2.9,2.9h-5.8c-1.6,0-2.9-1.3-2.9-2.9V81.3c0-5.2-4.2-9.4-9.2-9.4
			c-5.2,0-9.4,4.2-9.4,9.4v96.4c0,1.6-1.3,2.9-2.9,2.9h-5.8c-1.6,0-2.9-1.3-2.9-2.9V81.3c0-11.6,9.4-21,21-21
			C389.1,60.3,398.5,69.8,398.5,81.3z M393.6,81.3c0-8.9-7.1-16.1-15.9-16.1c-8.9,0-16.1,7.2-16.1,16.1v93.9c0,0.4,0.4,0.7,0.7,0.7
			h0.4c0.5,0,0.9-0.4,0.9-0.7V81.3c0-7.8,6.3-14.1,14.1-14.1c7.8,0,14.1,6.3,14.1,14.1v93.9c0,0.4,0.2,0.7,0.7,0.7h0.4
			c0.4,0,0.7-0.4,0.7-0.7V81.3z"/>
	</g>
	<g>
		<path fill="#FFFFFF" d="M578,63.2V69c0,1.6-1.3,2.9-2.9,2.9H567v105.8c0,1.6-1.3,2.9-2.9,2.9h-5.8c-1.6,0-2.9-1.3-2.9-2.9V71.9
			h-8.1c-1.6,0-2.9-1.3-2.9-2.9v-5.8c0-1.4,1.3-2.9,2.9-2.9h27.9C576.8,60.3,578,61.8,578,63.2z M573.2,66c0-0.4-0.4-0.7-0.7-0.7
			H550c-0.4,0-0.7,0.4-0.7,0.7v0.5c0,0.4,0.4,0.7,0.7,0.7h10.3v108c0,0.4,0.4,0.7,0.7,0.7h0.4c0.5,0,0.7-0.4,0.7-0.7v-108h10.3
			c0.4,0,0.7-0.4,0.7-0.7V66z"/>
		<path fill="#FFFFFF" d="M604.6,71.9v42.9h15.7c1.6,0,2.9,1.3,2.9,2.9v5.8c0,1.4-1.3,2.9-2.9,2.9h-15.7v42.7h15.7
			c1.6,0,2.9,1.4,2.9,2.9v5.8c0,1.6-1.3,2.9-2.9,2.9h-21.5c-3.3,0-5.8-2.5-5.8-5.8V66.1c0-3.1,2.5-5.8,5.8-5.8h21.5
			c1.6,0,2.9,1.4,2.9,2.9V69c0,1.6-1.3,2.9-2.9,2.9H604.6z M599.9,119.5V67.2h17.7c0.4,0,0.7-0.4,0.7-0.7V66c0-0.4-0.4-0.7-0.7-0.7
			h-18.8c-0.5,0-0.9,0.4-0.9,0.9v108.7c0,0.5,0.4,1.1,0.9,1.1h18.8c0.4,0,0.7-0.4,0.7-0.7v-0.5c0-0.4-0.4-0.7-0.7-0.7h-17.7v-52.5
			h17.7c0.4,0,0.7-0.4,0.7-0.7v-0.5c0-0.4-0.4-0.7-0.7-0.7H599.9z"/>
		<path fill="#FFFFFF" d="M670.1,87.3v-6.2c0-5.1-4.2-9.2-9.2-9.2c-5.1,0-9.2,4.2-9.2,9.2v78.7c0,5.1,4.2,9.2,9.2,9.2
			c5.1,0,9.2-4.2,9.2-9.2v-6.7c0-1.6,1.3-2.9,2.9-2.9h5.8c1.6,0,2.9,1.3,2.9,2.9v6.7c0,11.4-9.4,20.8-20.8,20.8
			c-11.6,0-20.8-9.4-20.8-20.8V81.2c0-11.4,9.2-20.8,20.8-20.8c11.4,0,20.8,9.4,20.8,20.8v6.2c0,1.6-1.3,2.9-2.9,2.9H673
			C671.4,90.2,670.1,88.9,670.1,87.3z M675,81.2v3.4c0,0.4,0.2,0.7,0.7,0.7h0.4c0.4,0,0.7-0.4,0.7-0.7v-3.4
			c0-8.9-7.1-16.1-15.9-16.1c-8.9,0-16.1,7.2-16.1,16.1v78.7c0,8.9,7.2,15.9,16.1,15.9c8.9,0,15.9-7.1,15.9-15.9v-4
			c0-0.5-0.4-0.9-0.7-0.9h-0.4c-0.5,0-0.7,0.4-0.7,0.9v4c0,7.8-6.3,14.1-14.1,14.1c-7.8,0-14.1-6.3-14.1-14.1V81.2
			c0-7.8,6.3-14.1,14.1-14.1C668.7,67,675,73.4,675,81.2z"/>
		<path fill="#FFFFFF" d="M738.4,63.2v114.5c0,1.6-1.3,2.9-2.9,2.9h-5.6c-1.6,0-2.9-1.3-2.9-2.9v-51.4h-18.6v51.4
			c0,1.6-1.3,2.9-2.9,2.9h-5.8c-1.6,0-2.9-1.3-2.9-2.9V63.4c0-0.2,0-0.2,0-0.2c0-1.4,1.3-2.9,2.9-2.9h5.8c1.6,0,2.9,1.4,2.9,2.9
			v51.6H727V63.2c0-1.4,1.3-2.9,2.9-2.9h5.6C737.1,60.3,738.4,61.8,738.4,63.2z M733.7,66c0-0.4-0.4-0.7-0.7-0.7h-0.5
			c-0.4,0-0.7,0.4-0.7,0.7v53.7h-28.2V66c0-0.4-0.4-0.7-0.7-0.7h-0.4c-0.5,0-0.9,0.4-0.9,0.7v109.3c0,0.4,0.4,0.7,0.9,0.7h0.4
			c0.4,0,0.7-0.4,0.7-0.7v-53.7h28.2v53.7c0,0.4,0.4,0.7,0.7,0.7h0.5c0.4,0,0.7-0.4,0.7-0.7V66z"/>
	</g>
	<g>
		<path fill="#FFFFFF" d="M790.5,228H9.5V11.1h781V228z M19.5,217.9h760.9V21.2H19.5V217.9z"/>
	</g>
	<g>
		<path fill="#FFFFFF" d="M457.9,107c3.3-2.2,6.6-4.4,9.9-6.6c15.1-10.3,9-22.3,6.7-25.8c-3.3-5-10.4-8.6-17.9-8.6
			c-5.7,0-12.1,2.1-16,6.6c-6.8,7.8-5.4,18.6-0.7,25.2l11.7,13.4C453.6,109.9,455.8,108.5,457.9,107z M441.5,84.9
			c0-3.9,1.5-7.1,4.4-9.7c2.9-2.6,6.5-4,10.8-4c4.7,0,8.4,1.3,11.2,3.9c2.8,2.6,4.2,5.9,4.2,10.1c0,3.7-2.1,5.8-4.2,8.3
			c-1,1.3-2.6,2.7-5,4.3c-2.7,1.9-4.1,3-7.5,5.1l-2.6,1.6c-0.6-0.7-0.8-1-1-1.3l-4.8-6C443.4,92.7,441.5,89.5,441.5,84.9z"/>
		<path fill="#FFFFFF" d="M431.3,128.1c-3.9,3.7-8.6,11-8.8,19.5c-0.1,6.8,2.5,13,8,18.5c5,5.1,14.9,10,25.7,9.7
			c13.1-0.4,21.2-5.6,26.9-10.2c1.9-1.5,4.5-4,7.5-7.1l-39.3-45.2C443,119,435.6,124.1,431.3,128.1z M454.9,170.4
			c-7.7,0-15.8-4.9-20.4-9.4c-4.5-4.7-5.8-8.9-5.8-14.5c0-3.9,1.9-8.5,4.8-12c3-3.5,8.7-8.1,17.1-13.9l32.7,38
			C473.1,168.9,462.8,170.4,454.9,170.4z"/>
		<path fill="#FFFFFF" d="M517.2,86.4c6.1-4.7,6.2-10.9,3.5-15.1c-1.7-2.7-5-4-9.1-4.1c-0.1,0-0.2,0-0.4,0c-3.5,0-6.8,1.5-8.5,3.5
			c-4,4.5-2.7,11.2,0.1,14l6.5,7.8c1.2-0.9,2.4-1.7,3.6-2.6L517.2,86.4z M509.8,86.9c-0.3-0.3-0.5-0.5-0.6-0.7l-2.7-3.2
			c-1.7-2-2.5-4.1-2.5-6.2c0-1.8,0.7-3.2,2-4.4c1.3-1.2,2.9-1.8,4.9-1.8c2.1,0,3.8,0.6,5.1,1.7c1.3,1.2,1.9,2.7,1.9,4.5
			c0,1.7-0.5,3-1.4,4.2c-0.4,0.6-1.1,1.3-2.1,2.1c-1,0.8-2.2,1.8-3.7,3L509.8,86.9z"/>
		<path fill="#FFFFFF" d="M545.9,130.3c-1.1-1.5-10.6-12.9-10.6-12.9c1.9-2.1,3.6-3.9,5-5.5c1-1.2,2.7-3.3,3.9-4.9
			c0.5-0.6,0.4-1.7-0.5-2.1c-0.8-0.4-5.4-2.5-6.5-2.9c-1.1-0.4-2.1,0.6-2.4,0.9c-0.7,0.8-0.8,1.1-1.7,2.1c-1.2,1.4-2.5,2.9-3.9,4.4
			l-0.4,0.5L516,94.4c4.5-3.5,7.6-6.4,9.3-8.9c1.7-2.5,2.6-5.3,2.6-8.3c0-4.4-1.6-8.1-4.8-11c-3.2-2.9-7.2-4.4-12.1-4.4
			c-5,0-9.1,1.5-12.3,4.5c-3.1,3-4.7,6.9-4.7,11.7c0,4.8,2.3,9.8,7,14.8c-0.3,0.2-0.5,0.4-0.6,0.5c-0.2,0.1-0.3,0.2-0.3,0.2
			l-4.6,3.2c-6.8,4.7-10.2,10.6-10.2,17.6c0,5.9,2.1,10.9,6.4,15c3.7,3.4,8.1,5.3,13.1,5.9c-3.2,3.9-12.2,14.2-12.2,14.2l-30.3-35.8
			c7.4-5.7,15.2-10.5,18-14.6c2.9-4.1,4.3-8.6,4.3-13.6c0-7.3-2.6-13.3-7.8-18.1c-5.2-4.8-11.8-7.2-19.8-7.2c-8.2,0-15,2.5-20.2,7.4
			c-5.1,4.9-7.7,11.3-7.7,19.1c0,7.9,5.1,16,12.8,24.2c-0.5,0.4-2.1,1.4-2.2,1.5l-7,4.9c-11.1,7.7-17.6,18.7-17.6,30.3
			c0,9.7,3.3,15.9,9.7,23.2c6.3,7.1,21.3,12.5,31.6,12.5c11.5,0,24.2-4.1,34.9-15.1c0,0,5.4,7.1,6.5,8.4c1.7,2.1,3.7,3.5,5.4,3.5
			c3,0,5.4,0,8.2,0c2.8,0,4.7-2.4,2.6-5.2c-1.8-2.4-13.8-15.8-13.8-15.8c3.2-3.5,5.9-6.6,8.2-9.2c1.9-2.2,15-17.6,20.2-23.8
			c1.3,1.5,4.7,4.9,5.2,5.6c1.1,1.3,2.2,1.5,3.3,1.5c1.8,0,5.7,0,7.4,0C546,132.8,547.2,132,545.9,130.3z M531.9,112.3l5.3-6.2
			c0.3-0.3,0.8-0.4,1.1-0.1c0.3,0.3,0.4,0.8,0.1,1.1l-5.3,6.2c-0.2,0.2-0.4,0.3-0.7,0.3c-0.2,0-0.3-0.1-0.5-0.2
			C531.6,113.1,531.6,112.6,531.9,112.3z M523.8,123.3c-6.9,8.4-20.8,24.7-31,35.3l12.9,14.9c0.3,0.3,0.3,0.8-0.1,1.1
			c-0.3,0.3-0.8,0.3-1.1-0.1l-12.8-14.7c-3,3.1-5.6,5.5-7.5,7.1c-5.8,4.7-14.3,10.1-27.8,10.5c-0.4,0-0.7,0-1.1,0
			c-10.8,0-20.7-5-25.7-10.2c-5.8-5.8-8.6-12.5-8.4-19.7c0.2-9,5.1-16.7,9.3-20.6c4.3-4,11.7-9.2,20-14.8l-11.6-13.4
			c-5.1-7.2-6.6-18.8,0.8-27.3c4-4.6,10.9-7.1,17.2-7.1c8.1,0,15.7,3.9,19.3,9.3c2.5,3.8,9.2,16.9-7.2,28c-3.2,2.2-6.6,4.4-9.9,6.6
			c-2.1,1.4-4.2,2.8-6.2,4.1l39,44.9c10.2-10.6,24.3-27.1,30.9-35.1c0.3-0.3,0.8-0.4,1.1-0.1C524,122.5,524.1,123,523.8,123.3z
			 M540,130.8c-0.3,0.3-0.9,0.2-1.1-0.1L509,94.5c-4.8,3.5-8.8,6.4-11.4,8.4c-2.1,1.6-5.5,5.9-6,11.1c-0.4,4,1.1,7.4,4.1,10.6
			c3,3.3,8.1,5.3,11.2,5.2c0.4,0,0.8,0.1,0.8,0.5c0,0.4-0.4,0.5-0.8,0.5c0,0,0,0,0,0c-3.8,0-9.1-1.8-12.4-5.4
			c-3.3-3.6-4.9-7.3-4.5-11.7c0.5-5.4,3.8-10,6.6-12.1c2.6-2,6.6-4.9,11.3-8.3l-6.4-7.7c-3.2-3.2-4.8-10.9-0.1-16.1
			c2-2.2,5.9-4.1,10.2-4c4.6,0.2,8.4,1.8,10.4,4.9c3.1,4.7,3.1,11.9-3.9,17.3l-4.3,3.4c-1.2,0.9-2.4,1.7-3.5,2.6l29.8,36
			C540.4,130,540.4,130.5,540,130.8z M521.5,117.5c-5.4,5.4-10.2,8.1-14.3,8.1c-2.9,0-5.6-1.2-8.1-3.5c-2.4-2.4-3.5-5.1-3.5-8.1
			c0-2.1,0.8-4,2.3-5.8c1.6-1.8,4.6-4.3,9-7.3l0.6-0.4L521.5,117.5z"/>
	</g>
</g>
</svg>
